<svg xmlns="http://www.w3.org/2000/svg" width="892.073" height="95.909" viewBox="0 0 892.073 95.909">
  <g id="Group_57" data-name="Group 57" transform="translate(892.073 402.652) rotate(180)">
    <path id="Path_38" data-name="Path 38" d="M0,0S235.6.641,388.842,2.109,719.7,3.787,612.961,5.875,0,8.35,0,8.35Z" transform="translate(0 394.303)" fill="#93d3dd"/>
    <path id="Path_37" data-name="Path 37" d="M0,0S333.411.734,531.683,2.6s394.324,3.645,261.4,4.859S0,7.457,0,7.457Z" transform="translate(0 372.653)" fill="#25a8ba"/>
    <path id="Path_43" data-name="Path 43" d="M0,0S333.411.734,531.683,2.6s394.324,3.645,261.4,4.859S0,7.457,0,7.457Z" transform="translate(0 372.653)" fill="#25a8ba"/>
    <path id="Path_36" data-name="Path 36" d="M0,0S620.347.909,778.452,2.5,835.979,4.52,632.42,6.371,0,8.31,0,8.31Z" transform="translate(0 350.69)" fill="#4c7bb3"/>
    <path id="Path_39" data-name="Path 39" d="M0-.314s587.166-2.242,753.195-1.5S880.761.233,664.115,2.667,0,6.407,0,6.407Z" transform="translate(0 329.865)" fill="#1f59a2"/>
    <path id="Path_34" data-name="Path 34" d="M0-.055S644.874.938,838.706,2.814s-202.7,1.911-202.7,1.911L0,7.452Z" transform="translate(0 306.798)" fill="#274874"/>
  </g>
</svg>
