<svg xmlns="http://www.w3.org/2000/svg" width="1132.232" height="654.478" viewBox="0 0 1132.232 654.478">
  <g id="Group_128" data-name="Group 128" transform="translate(-9262.618 6523.071)">
    <path id="Polygon_11" data-name="Polygon 11" d="M185.5,0,371,333H0Z" transform="translate(10013 -6181) rotate(180)" fill="#707070" opacity="0.04"/>
    <g id="Group_126" data-name="Group 126" transform="translate(-178 138)" opacity="0.04">
      <path id="Path_78" data-name="Path 78" d="M-.771,12.358,10.434,1.206l.309,136.234.9,396.127H0Z" transform="translate(10406.962 -6660.622) rotate(45)" fill="#707070"/>
      <path id="Path_90" data-name="Path 90" d="M-.771,11.64,10.434,1.206l.309,127.474.9,370.656H0Z" transform="translate(10368.758 -6660.417) rotate(45)" fill="#707070"/>
      <path id="Path_91" data-name="Path 91" d="M-.771,10.96,10.532-.4l.21,120.684.61,346.693-3.3-12.453L-.067,427.173Z" transform="translate(10328.979 -6659.639) rotate(45)" fill="#707070"/>
      <path id="Path_92" data-name="Path 92" d="M-.771,8.121,8.6-1.25l2.143,90.306.9,256.314L8,332.463-.093,304.507Z" transform="translate(10290.36 -6659.02) rotate(45)" fill="#707070"/>
      <path id="Path_93" data-name="Path 93" d="M.717,7.757,9.963-1.489l.78,59.046L12.16,223.346,8.776,211.377-.155,180.556Z" transform="translate(10251.394 -6658.563) rotate(45)" fill="#707070"/>
      <path id="Path_94" data-name="Path 94" d="M-2.145,9.778,9.6-1.968l1.142,24.634.9,69.132-3.2-12.4L-.2,48.8Z" transform="translate(10209.993 -6658.163) rotate(45)" fill="#707070"/>
      <path id="Path_79" data-name="Path 79" d="M-1.126,12.766l11.56-11.56.309,145.881.9,424.177H0Z" transform="translate(10448.618 -6660.277) rotate(45)" fill="#707070"/>
      <path id="Path_80" data-name="Path 80" d="M-.958,12.6,10.434,1.206l.309,154.622.9,449.593H0Z" transform="translate(10487.771 -6660.43) rotate(45)" fill="#707070"/>
      <path id="Path_81" data-name="Path 81" d="M-.784,12.424,10.434,1.206l.309,163.3.9,474.819H0Z" transform="translate(10525.742 -6660.402) rotate(45)" fill="#707070"/>
      <path id="Path_82" data-name="Path 82" d="M-1.2,12.916,10.434,1.206l.309,172.247.9,500.842H0Z" transform="translate(10565.473 -6659.132) rotate(45)" fill="#707070"/>
      <path id="Path_83" data-name="Path 83" d="M-2.4-35.368,8.546,2.182l2.2,145.985.9,427.317H0Z" transform="translate(10509.603 -6564.262) rotate(45)" fill="#707070"/>
      <path id="Path_84" data-name="Path 84" d="M-2.278-41.939,9.6,1.022l1.147,122.021.9,354.265H0Z" transform="translate(10454.182 -6471.229) rotate(45)" fill="#707070"/>
      <path id="Path_85" data-name="Path 85" d="M-1-38.514,10.434,1.206l.309,97.328.9,283H0Z" transform="translate(10400.458 -6380.505) rotate(45)" fill="#707070"/>
      <path id="Path_86" data-name="Path 86" d="M-1.263-33.489l11.7,34.695L10.743,76.4l.9,218.641H0Z" transform="translate(10354.299 -6294.346) rotate(45)" fill="#707070"/>
      <path id="Path_87" data-name="Path 87" d="M-.871-29.722,10.434,1.206l.309,51.379.9,149.393H0Z" transform="translate(10302.493 -6202.541) rotate(45)" fill="#707070"/>
      <path id="Path_88" data-name="Path 88" d="M-.937-34.968,10.434,1.206l.309,26.347.9,76.61H0Z" transform="translate(10246.328 -6109.375) rotate(45)" fill="#707070"/>
      <path id="Path_89" data-name="Path 89" d="M.763-23.423,10.434,1.206l.309,4.653.9,13.53H0Z" transform="translate(10199.385 -6028.534) rotate(45)" fill="#707070"/>
    </g>
    <g id="Group_127" data-name="Group 127" transform="translate(9262.618 -6522.465)" opacity="0.04">
      <path id="Path_78-2" data-name="Path 78" d="M0,521.209l11.205,11.152.309-136.234L12.411,0H.771Z" transform="translate(543.722 376.586) rotate(135)" fill="#707070"/>
      <path id="Path_90-2" data-name="Path 90" d="M0,487.7l11.205,10.435.309-127.474L12.411,0H.771Z" transform="translate(557.722 352.586) rotate(135)" fill="#707070"/>
      <path id="Path_91-2" data-name="Path 91" d="M0,449.22l11.3,11.2.21-119.006L13.987-5.238,10.817,6.028.7,41.29Z" transform="translate(569.701 325.566) rotate(135)" fill="#707070"/>
      <path id="Path_92-2" data-name="Path 92" d="M.376,328.162l10.105,10.105,1.032-87.51L12.411,0l-.855,3.818L.892,40.875Z" transform="translate(521.948 239.813) rotate(135)" fill="#707070"/>
      <path id="Path_93-2" data-name="Path 93" d="M1.529,204.825l9.205,9.205.78-55.882L12.411,0l-.678.678L.723,39.236Z" transform="translate(472.291 151.646) rotate(135)" fill="#707070"/>
      <path id="Path_94-2" data-name="Path 94" d="M.563,76.828l9.808,9.808,1.142-22.76L12.411,0,11.5,5,1.149,41.968Z" transform="translate(423.272 61.626) rotate(135)" fill="#707070"/>
      <path id="Path_79-2" data-name="Path 79" d="M0,558.5l11.56,11.56.309-145.881L12.766,0H1.126Z" transform="translate(528.973 403.335) rotate(135)" fill="#707070"/>
      <path id="Path_80-2" data-name="Path 80" d="M0,592.823l11.392,11.392L11.7,449.593,12.6,0H.958Z" transform="translate(513.854 427.454) rotate(135)" fill="#707070"/>
      <path id="Path_81-2" data-name="Path 81" d="M0,626.9l11.218,11.218.309-163.3L12.424,0H.784Z" transform="translate(499.732 451.577) rotate(135)" fill="#707070"/>
      <path id="Path_82-2" data-name="Path 82" d="M0,661.379l11.634,11.71.309-172.247L12.84,0H1.2Z" transform="translate(485.025 477.283) rotate(135)" fill="#707070"/>
      <path id="Path_83-2" data-name="Path 83" d="M0,610.853,10.949,573.3l2.2-145.985L14.044,0H2.4Z" transform="translate(471.877 501.432) rotate(135)" fill="#707070"/>
      <path id="Path_84-2" data-name="Path 84" d="M0,519.247l11.874-42.961,1.147-122.021L13.918,0H2.278Z" transform="translate(457.788 525.133) rotate(135)" fill="#707070"/>
      <path id="Path_85-2" data-name="Path 85" d="M0,420.047l11.436-39.72L11.744,283l.9-283H1Z" transform="translate(442.885 549.036) rotate(135)" fill="#707070"/>
      <path id="Path_86-2" data-name="Path 86" d="M0,328.529l11.7-34.695.309-75.194L12.9,0H1.263Z" transform="translate(428.07 573.851) rotate(135)" fill="#707070"/>
      <path id="Path_87-2" data-name="Path 87" d="M0,231.7l11.306-30.928.309-51.379L12.511,0H.871Z" transform="translate(413.793 600.128) rotate(135)" fill="#707070"/>
      <path id="Path_88-2" data-name="Path 88" d="M0,139.131l11.371-36.174L11.68,76.61,12.577,0H.937Z" transform="translate(400.84 624.081) rotate(135)" fill="#707070"/>
      <path id="Path_89-2" data-name="Path 89" d="M.763,42.813l9.671-24.629.309-4.653L11.64,0H0Z" transform="translate(387.176 645.641) rotate(135)" fill="#707070"/>
    </g>
  </g>
</svg>
